<svg height="512pt" viewBox="0 0 512 512" width="512pt" xmlns="http://www.w3.org/2000/svg"><path d="m494.515625 0h-477.03125c-9.640625 0-17.484375 7.84375-17.484375 17.484375v477.03125c0 9.640625 7.84375 17.484375 17.484375 17.484375h477.03125c9.640625 0 17.484375-7.84375 17.484375-17.484375v-477.03125c0-9.640625-7.84375-17.484375-17.484375-17.484375zm2.5 486.417969-55.351563-55.351563c24.972657-26.449218 43.671876-57.332031 55.351563-90.839844zm-241.015625-72.433594c-4.136719 0-7.492188 3.355469-7.492188 7.496094v7.992187c0 1.101563.242188 2.144532.671876 3.089844h-144.558594c-14.046875 0-25.472656-11.429688-25.472656-25.476562v-143.550782h170.035156c-.429688.941406-.675782 1.988282-.675782 3.09375v7.992188c0 4.140625 3.355469 7.492187 7.492188 7.492187 4.140625 0 7.492188-3.351562 7.492188-7.492187v-.53125l155.605468 155.601562c-3.511718 1.828125-7.496094 2.867188-11.71875 2.867188h-144.558594c.429688-.941406.671876-1.984375.671876-3.089844v-7.992188c0-4.136718-3.351563-7.492187-7.492188-7.492187zm0-317.691406c4.136719 0 7.492188-3.351563 7.492188-7.492188v-7.992187c0-.675782-.097657-1.328125-.265626-1.953125h144.152344c4.378906 0 8.5 1.109375 12.105469 3.066406l-32.320313 32.316406c-2.925781 2.925781-2.925781 7.667969 0 10.597657 1.464844 1.460937 3.382813 2.191406 5.300782 2.191406 1.917968 0 3.835937-.730469 5.296875-2.191406l32.222656-32.226563c1.828125 3.511719 2.867187 7.496094 2.867187 11.722656v144.21875h-171.191406c1.140625-1.316406 1.832032-3.023437 1.832032-4.898437v-7.992188c0-4.140625-3.355469-7.496094-7.492188-7.496094-4.140625 0-7.492188 3.355469-7.492188 7.496094v2.25l-121.527343-121.527344c-2.925781-2.925781-7.671875-2.925781-10.597657 0-2.925781 2.925782-2.925781 7.671876 0 10.597657l121.570313 121.566406h-158.804687v-144.214844c0-14.046875 11.425781-25.476562 25.472656-25.476562h144.152344c-.167969.625-.265626 1.277343-.265626 1.953125v7.992187c0 4.140625 3.355469 7.492188 7.492188 7.492188zm18.132812 167.242187h158.722657v143.550782c0 4.378906-1.113281 8.5-3.066407 12.105468zm173.707032-151.925781c30.347656 40.21875 48.367187 90.238281 48.367187 144.390625s-18.019531 104.171875-48.367187 144.390625zm-16.773438-41.269531c-26.449218-24.976563-57.335937-43.675782-90.839844-55.355469h146.191407zm-31.054687-6.46875h-288.019531c40.152343-30.175782 90.027343-48.078125 144.007812-48.078125s103.855469 17.902343 144.011719 48.078125zm-335.851563 336.519531c-30.347656-40.21875-48.363281-90.238281-48.363281-144.390625s18.015625-104.171875 48.363281-144.390625zm336.613282 47.15625c-40.285157 30.523437-90.449219 48.660156-144.773438 48.660156s-104.484375-18.136719-144.769531-48.660156zm30.292968-5.886719 55.351563 55.355469h-146.191407c33.503907-11.679687 64.390626-30.378906 90.839844-55.355469zm10.59375-360.726562 55.355469-55.351563v146.191407c-11.679687-33.503907-30.378906-64.390626-55.355469-90.839844zm-424.175781-65.949219h154.289063c-35.800782 12.484375-68.617188 32.964844-96.21875 60.570313-27.605469 27.601562-48.089844 60.417968-60.570313 96.222656v-154.292969c0-1.378906 1.121094-2.5 2.5-2.5zm-2.5 479.53125v-154.292969c12.480469 35.804688 32.964844 68.625 60.570313 96.226563 27.601562 27.601562 60.417968 48.085937 96.21875 60.566406h-154.289063c-1.378906 0-2.5-1.121094-2.5-2.5zm0 0"/><path d="m256 375.023438c4.136719 0 7.492188-3.351563 7.492188-7.492188v-7.992188c0-4.140624-3.355469-7.492187-7.492188-7.492187s-7.492188 3.351563-7.492188 7.492187v7.992188c0 4.140625 3.355469 7.492188 7.492188 7.492188zm0 0"/><path d="m256 313.085938c4.136719 0 7.492188-3.355469 7.492188-7.496094v-7.992188c0-4.136718-3.355469-7.492187-7.492188-7.492187s-7.492188 3.355469-7.492188 7.492187v7.992188c0 4.140625 3.355469 7.496094 7.492188 7.496094zm0 0"/><path d="m256 344.054688c4.136719 0 7.492188-3.355469 7.492188-7.492188v-7.992188c0-4.140624-3.355469-7.496093-7.492188-7.496093s-7.492188 3.355469-7.492188 7.496093v7.992188c0 4.136719 3.355469 7.492188 7.492188 7.492188zm0 0"/><path d="m256 197.195312c-4.136719 0-7.492188 3.355469-7.492188 7.492188v7.992188c0 4.140624 3.355469 7.496093 7.492188 7.496093s7.492188-3.355469 7.492188-7.496093v-7.992188c0-4.136719-3.351563-7.492188-7.492188-7.492188zm0 0"/><path d="m248.507812 119.773438c0 4.136718 3.355469 7.492187 7.492188 7.492187 4.140625 0 7.492188-3.355469 7.492188-7.492187v-7.992188c0-4.140625-3.351563-7.496094-7.492188-7.496094-4.136719 0-7.492188 3.355469-7.492188 7.496094zm0 0"/><path d="m256 135.257812c-4.136719 0-7.492188 3.351563-7.492188 7.492188v7.992188c0 4.140624 3.355469 7.492187 7.492188 7.492187s7.492188-3.351563 7.492188-7.492187v-7.992188c0-4.140625-3.351563-7.492188-7.492188-7.492188zm0 0"/><path d="m256 166.226562c-4.136719 0-7.492188 3.355469-7.492188 7.492188v7.992188c0 4.140624 3.355469 7.492187 7.492188 7.492187s7.492188-3.351563 7.492188-7.492187v-7.992188c0-4.136719-3.351563-7.492188-7.492188-7.492188zm0 0"/><path d="m263.492188 390.507812c0-4.136718-3.355469-7.492187-7.492188-7.492187s-7.492188 3.355469-7.492188 7.492187v7.992188c0 4.140625 3.355469 7.492188 7.492188 7.492188s7.492188-3.351563 7.492188-7.492188zm0 0"/></svg>