<svg xmlns="http://www.w3.org/2000/svg" width="35" height="35" viewBox="0 0 24 24">
  <linearGradient id="GRADIENT1" gradientTransform="matrix(0 -1.982 -1.844 0 -132.522 -51.077)"
    gradientUnits="userSpaceOnUse" x1="-37.106" x2="-26.555" y1="-72.705" y2="-84.047">
    <stop offset="0" stop-color="#ffdd55" />
    <stop offset="0.5" stop-color="#ff543e" />
    <stop offset="1" stop-color="#c837ab" />
  </linearGradient>
  <path fill="url(#GRADIENT1)" d="
    m 1.5 1.633
    c -1.886 1.959 -1.5 4.04 -1.5 10.362 
    c 0 5.25 -0.916 10.513 3.878 11.752 
    c 1.497 0.385 14.761 0.385 16.256 -0.002 
    c 1.996 -0.515 3.62 -2.134 3.842 -4.957 
    c 0.031 -0.394 0.031 -13.185 -0.001 -13.587 
    c -0.236 -3.007 -2.087 -4.74 -4.526 -5.091 
    c -0.559 -0.081 -0.671 -0.105 -3.539 -0.11 
    c -10.173 0.005 -12.403 -0.448 -14.41 1.633
    z" />
  <path fill="#ffffff" d="
    m 11.998 3.139
    c -3.631 0 -7.079 -0.323 -8.396 3.057 
    c -0.544 1.396 -0.465 3.209 -0.465 5.805 
    c 0 2.278 -0.073 4.419 0.465 5.804 
    c 1.314 3.382 4.79 3.058 8.394 3.058 
    c 3.477 0 7.062.362 8.395 -3.058 
    c 0.545 -1.41 0.465 -3.196 0.465 -5.804 
    c 0 -3.462 0.191 -5.697 -1.488 -7.375
    c -1.7 -1.7 -3.999 -1.487 -7.374 -1.487
    zm -0.794 1.597
    c 7.574 -0.012 8.538 -0.854 8.006 10.843
    c -0.189 4.137 -3.339 3.683 -7.211 3.683 
    c -7.06 0 -7.263 -0.202 -7.263 -7.265
    c 0 -7.145 0.56 -7.257 6.468 -7.263
    zm 5.524 1.471
    c -0.587 0 -1.063 0.476 -1.063 1.063
    s 0.476 1.063 1.063 1.063 
    s 1.063 -0.476 1.063 -1.063 
    s -0.476 -1.063 -1.063 -1.063
    zm -4.73 1.243
    c -2.513 0 -4.55 2.038 -4.55 4.551
    s 2.037 4.55 4.55 4.55 
    s 4.549 -2.037 4.549 -4.55
    s -2.036 -4.551 -4.549 -4.551
    zm 0 1.597
    c 3.905 0 3.91 5.908 0 5.908
    c -3.904 0 -3.91 -5.908 0 -5.908
    z" />
</svg>