<svg xmlns="http://www.w3.org/2000/svg" width="35" height="35" viewBox="0 0 242.667 242.667">
	<rect fill="#ffffff" x="0" y="0" width="242.667" height="242.667" />
	<path fill="#0088cc" d="
		M 162.443, 86.061
		l -54.044, 50.235
		c -1.899, 1.765 -3.126, 4.135 -3.473, 6.704
		l -1.839, 13.641
		c -0.245, 1.82 -2.806, 2.003 -3.308, 0.237
    l -7.08 -24.875 
		c -0.808 -2.839, 0.37 -5.87, 2.883 -7.418
		l 65.484 -40.334
		C 162.241, 83.528, 163.454, 85.121, 162.443, 86.061
		z 
		M 242.667, 0 
		v 242.667
		H 0 
		V 0 
		H 242.667
		z 
		M 188.665,58.301
		l -137.51, 53.047
		c -3.39, 1.308 -3.364, 6.114, 0.04, 7.385
		L 84.7, 131.24
		l 12.97, 41.708 
		c 0.831, 2.671, 4.099, 3.656, 6.267, 1.888
		l 18.677 -15.226
		c 1.958 -1.596, 4.744 -1.674, 6.788 -0.19
		l 33.689, 24.459
    c 2.319, 1.684, 5.604, 0.414, 6.187 -2.392
		l 24.675 -118.699
		C 194.59, 59.727, 191.583, 57.175, 188.665, 58.301
		z" />
</svg>