<svg xmlns="http://www.w3.org/2000/svg" width="35" height="35" viewBox="0 0 455.731 455.731">
	<rect fill="#50ABF1" x="0" y="0" width="455.731" height="455.731" />
	<path fill="#FFFFFF" d="
	M 60.377, 337.822
	c 30.33, 19.236, 66.308, 30.368, 104.875, 30.368
	c 108.349, 0, 196.18 -87.841, 196.18 -196.18
  c 0 -2.705 -0.057 -5.39 -0.161 -8.067
	c 3.919 -3.084, 28.157 -22.511, 34.098 -35 
	c 0, 0 -19.683, 8.18 -38.947, 10.107
	c -0.038, 0 -0.085, 0.009 -0.123, 0.009
	c 0, 0, 0.038 -0.019, 0.104 -0.066
	c 1.775 -1.186, 26.591 -18.079, 29.951 -38.207
  c 0, 0 -13.922, 7.431 -33.415, 13.932
	c -3.227, 1.072 -6.605, 2.126 -10.088, 3.103
	c -12.565 -13.41 -30.425 -21.78 -50.25 -21.78
  c -38.027, 0 -68.841, 30.805 -68.841, 68.803
	c 0, 5.362, 0.617, 10.581, 1.784, 15.592
	c -5.314 -0.218 -86.237 -4.755 -141.289 -71.423
  c 0, 0 -32.902, 44.917, 19.607, 91.105
	c 0, 0 -15.962 -0.636 -29.733 -8.864
	c 0, 0 -5.058, 54.416, 54.407, 68.329 c 0, 0 -11.701, 4.432 -30.368, 1.272
  c 0, 0, 10.439, 43.968, 63.271, 48.077
	c 0, 0 -41.777, 37.74 -101.081, 28.885
	L 60.377, 337.822
	z" />
</svg>